<svg width="32" height="32" viewBox="0 0 32 32" fill="none" xmlns="http://www.w3.org/2000/svg">
<path fill-rule="evenodd" clip-rule="evenodd" d="M11.7178 2.66066C11.9925 2.572 12.2921 2.60633 12.5395 2.75481L15.4626 4.50868C15.8209 4.49267 16.1798 4.49268 16.5381 4.50871L19.449 2.76672C19.6945 2.61984 19.9911 2.5851 20.2638 2.67126C22.1741 3.27479 23.9304 4.28627 25.4111 5.63569C25.6234 5.82913 25.7422 6.10449 25.7374 6.39164L25.6802 9.78943C25.8776 10.0926 26.0587 10.406 26.2228 10.7283L29.186 12.3758C29.4355 12.5145 29.6138 12.7533 29.676 13.0319C30.112 14.9845 30.1166 17.0087 29.6895 18.9633C29.6281 19.2443 29.4487 19.4852 29.197 19.6246L26.2224 21.2721C26.0584 21.5942 25.8774 21.9073 25.6802 22.2102L25.7374 25.608C25.7422 25.8951 25.6234 26.1705 25.4111 26.364C23.9335 27.7104 22.1846 28.7248 20.2822 29.339C20.0076 29.4276 19.708 29.3933 19.4605 29.2448L16.5374 27.4909C16.1791 27.5069 15.8203 27.5069 15.462 27.4909L12.551 29.2329C12.3056 29.3798 12.009 29.4145 11.7363 29.3284C9.82599 28.7248 8.06968 27.7133 6.58896 26.3639C6.37668 26.1705 6.25783 25.8951 6.26268 25.6079L6.31994 22.2178C6.12371 21.9116 5.94278 21.5958 5.7778 21.2716L2.81411 19.6238C2.5646 19.4851 2.38627 19.2463 2.32407 18.9677C1.88811 17.0151 1.88351 14.9909 2.31059 13.0363C2.37199 12.7553 2.55142 12.5144 2.80304 12.375L5.77768 10.7275C5.94167 10.4054 6.12265 10.0923 6.31988 9.78943L6.26268 6.39164C6.25784 6.10448 6.37671 5.82911 6.58899 5.63566C8.0666 4.28919 9.81543 3.27478 11.7178 2.66066ZM8.27018 6.82064L8.32489 10.0705C8.32844 10.281 8.26543 10.4873 8.14485 10.6599C7.87663 11.0439 7.6418 11.4502 7.44295 11.8743C7.35355 12.065 7.20625 12.2226 7.02204 12.3246L4.17771 13.8999C3.92892 15.2889 3.93237 16.7115 4.18791 18.0993L7.02347 19.6758C7.20629 19.7775 7.35263 19.9339 7.4419 20.123C7.64511 20.5537 7.88214 20.9675 8.15075 21.3607C8.26754 21.5317 8.32839 21.7347 8.32489 21.9417L8.27021 25.1789C9.35109 26.0919 10.5871 26.8037 11.9194 27.2801L14.699 25.6167C14.8751 25.5114 15.0793 25.4627 15.2839 25.4774C15.7607 25.5115 16.2394 25.5115 16.7162 25.4774C16.9212 25.4627 17.1258 25.5116 17.302 25.6173L20.0906 27.2904C21.4185 26.8065 22.6506 26.0916 23.7299 25.179L23.6752 21.9291C23.6716 21.7186 23.7346 21.5123 23.8552 21.3397C24.1234 20.9557 24.3583 20.5494 24.5571 20.1253C24.6465 19.9346 24.7938 19.777 24.978 19.675L27.8224 18.0997C28.0712 16.7107 28.0677 15.2881 27.8122 13.9003L24.9766 12.3238C24.793 12.2217 24.6463 12.0645 24.5571 11.8743C24.3583 11.4502 24.1234 11.0439 23.8552 10.6599C23.7346 10.4873 23.6716 10.281 23.6752 10.0705L23.7299 6.82078C22.649 5.90768 21.413 5.19596 20.0806 4.71952L17.301 6.3829C17.125 6.48824 16.9208 6.5369 16.7162 6.52226C16.2394 6.48815 15.7607 6.48815 15.2839 6.52226C15.0789 6.53692 14.8743 6.48805 14.698 6.3823L11.9095 4.70917C10.5815 5.19316 9.34945 5.90799 8.27018 6.82064ZM16 10.9998C13.2386 10.9998 11 13.2384 11 15.9998C11 18.7612 13.2386 20.9998 16 20.9998C18.7615 20.9998 21 18.7612 21 15.9998C21 13.2384 18.7615 10.9998 16 10.9998ZM9.00004 15.9998C9.00004 12.1338 12.134 8.99981 16 8.99981C19.866 8.99981 23 12.1338 23 15.9998C23 19.8658 19.866 22.9998 16 22.9998C12.134 22.9998 9.00004 19.8658 9.00004 15.9998Z" fill="#373D43"/>
</svg>
