<svg width="32" height="32" viewBox="0 0 32 32" fill="none" xmlns="http://www.w3.org/2000/svg">
<path fill-rule="evenodd" clip-rule="evenodd" d="M11 28.0001C11 27.4478 11.4477 27.0001 12 27.0001H20C20.5523 27.0001 21 27.4478 21 28.0001C21 28.5524 20.5523 29.0001 20 29.0001H12C11.4477 29.0001 11 28.5524 11 28.0001Z" fill="#373D43"/>
<path fill-rule="evenodd" clip-rule="evenodd" d="M15.9999 6.02515C14.9526 6.02515 13.9156 6.23143 12.948 6.63221C11.9804 7.03299 11.1013 7.62042 10.3607 8.36097C9.62017 9.10152 9.03274 9.98067 8.63196 10.9482C8.23118 11.9158 8.0249 12.9529 8.0249 14.0001C8.0249 18.6158 7.05711 21.3956 6.12842 23.0002H25.8714C24.9427 21.3956 23.9749 18.6158 23.9749 14.0001C23.9749 12.9529 23.7686 11.9158 23.3678 10.9482C22.9671 9.98067 22.3796 9.10152 21.6391 8.36097C20.8985 7.62042 20.0194 7.03299 19.0518 6.63221C18.0842 6.23143 17.0472 6.02515 15.9999 6.02515ZM12.1826 4.78445C13.3929 4.28316 14.69 4.02515 15.9999 4.02515C17.3098 4.02515 18.6069 4.28316 19.8172 4.78445C21.0274 5.28574 22.127 6.02049 23.0533 6.94676C23.9795 7.87302 24.7143 8.97266 25.2156 10.1829C25.7169 11.3931 25.9749 12.6902 25.9749 14.0001C25.9749 18.3335 26.8817 20.7535 27.6028 21.9991L27.6034 22.0001C27.7787 22.3037 27.8711 22.6479 27.8714 22.9984C27.8717 23.3489 27.7799 23.6933 27.6052 23.9971C27.4305 24.3009 27.179 24.5535 26.8759 24.7296C26.5729 24.9056 26.2289 24.9989 25.8784 25.0001L25.8749 25.0001H6.1249L6.12137 25.0001C5.7709 24.9989 5.4269 24.9056 5.12384 24.7296C4.82078 24.5535 4.56931 24.3009 4.39461 23.9971C4.2199 23.6933 4.12811 23.3489 4.12842 22.9984C4.12873 22.6479 4.22113 22.3037 4.39637 22.0001L4.39697 21.9991C5.11809 20.7535 6.0249 18.3335 6.0249 14.0001C6.0249 12.6902 6.28291 11.3931 6.7842 10.1829C7.28549 8.97266 8.02024 7.87302 8.94651 6.94676C9.87277 6.02049 10.9724 5.28574 12.1826 4.78445Z" fill="#373D43"/>
<path fill-rule="evenodd" clip-rule="evenodd" d="M22.0793 2.46634C22.3741 1.99932 22.9917 1.85971 23.4587 2.15451C25.6499 3.5377 27.4184 5.497 28.5706 7.81797C28.8162 8.31265 28.6143 8.91275 28.1196 9.15833C27.6249 9.40391 27.0248 9.20197 26.7792 8.70729C25.7902 6.71495 24.2721 5.03308 22.3911 3.84574C21.9241 3.55094 21.7845 2.93336 22.0793 2.46634Z" fill="#373D43"/>
<path fill-rule="evenodd" clip-rule="evenodd" d="M9.92054 2.46634C10.2153 2.93336 10.0757 3.55094 9.60872 3.84574C7.72779 5.03308 6.20971 6.71495 5.22063 8.70729C4.97505 9.20197 4.37495 9.40391 3.88027 9.15833C3.38559 8.91275 3.18365 8.31265 3.42923 7.81797C4.58146 5.497 6.34994 3.5377 8.54113 2.15451C9.00815 1.85971 9.62574 1.99932 9.92054 2.46634Z" fill="#373D43"/>
</svg>
