<svg width="32" height="32" viewBox="0 0 32 32" fill="none" xmlns="http://www.w3.org/2000/svg">
<path fill-rule="evenodd" clip-rule="evenodd" d="M9.92054 2.46634C10.2153 2.93336 10.0757 3.55094 9.60872 3.84574C7.72779 5.03308 6.20971 6.71495 5.22063 8.70729C4.97505 9.20197 4.37495 9.40391 3.88027 9.15833C3.38559 8.91275 3.18365 8.31265 3.42923 7.81797C4.58146 5.497 6.34994 3.5377 8.54113 2.15451C9.00815 1.85971 9.62574 1.99932 9.92054 2.46634ZM22.0793 2.46634C22.3741 1.99932 22.9917 1.85971 23.4587 2.15451C25.6499 3.5377 27.4184 5.497 28.5706 7.81797C28.8162 8.31265 28.6143 8.91275 28.1196 9.15833C27.6249 9.40391 27.0248 9.20197 26.7792 8.70729C25.7901 6.71495 24.2721 5.03308 22.3911 3.84574C21.9241 3.55094 21.7845 2.93336 22.0793 2.46634ZM15.9999 6.02513C14.9526 6.02513 13.9156 6.23141 12.948 6.63219C11.9805 7.03297 11.1013 7.62041 10.3608 8.36095C9.6202 9.1015 9.03277 9.98066 8.63199 10.9482C8.23121 11.9158 8.02493 12.9528 8.02493 14.0001C8.02493 18.6158 7.05715 21.3956 6.12845 23.0001H25.8714C24.9427 21.3956 23.9749 18.6158 23.9749 14.0001C23.9749 12.9528 23.7686 11.9158 23.3679 10.9482C22.9671 9.98066 22.3797 9.1015 21.6391 8.36095C20.8986 7.62041 20.0194 7.03297 19.0518 6.63219C18.0843 6.23141 17.0472 6.02513 15.9999 6.02513ZM20.9999 25.0001H25.8749L25.8784 25.0001C26.2289 24.9989 26.5729 24.9056 26.876 24.7295C27.179 24.5535 27.4305 24.3009 27.6052 23.9971C27.7799 23.6932 27.8717 23.3488 27.8714 22.9984C27.8711 22.6479 27.7787 22.3036 27.6034 22.0001L27.6029 21.9991C26.8817 20.7535 25.9749 18.3335 25.9749 14.0001C25.9749 12.6902 25.7169 11.3931 25.2156 10.1829C24.7143 8.97264 23.9796 7.873 23.0533 6.94674C22.1271 6.02048 21.0274 5.28572 19.8172 4.78443C18.607 4.28314 17.3099 4.02513 15.9999 4.02513C14.69 4.02513 13.3929 4.28314 12.1827 4.78443C10.9724 5.28572 9.8728 6.02047 8.94654 6.94674C8.02027 7.873 7.28552 8.97264 6.78423 10.1829C6.28294 11.3931 6.02493 12.6902 6.02493 14.0001C6.02493 18.3335 5.11812 20.7535 4.397 21.9991L4.39641 22.0001C4.22116 22.3036 4.12876 22.6479 4.12845 22.9984C4.12814 23.3488 4.21993 23.6932 4.39464 23.9971C4.56934 24.3009 4.82082 24.5535 5.12388 24.7295C5.42694 24.9056 5.77094 24.9989 6.12141 25.0001L6.12493 25.0001H10.9999C10.9999 26.3262 11.5267 27.598 12.4644 28.5357C13.4021 29.4733 14.6738 30.0001 15.9999 30.0001C17.326 30.0001 18.5978 29.4733 19.5355 28.5357C20.4731 27.598 20.9999 26.3262 20.9999 25.0001ZM18.9999 25.0001H12.9999C12.9999 25.7958 13.316 26.5588 13.8786 27.1214C14.4412 27.6841 15.2043 28.0001 15.9999 28.0001C16.7956 28.0001 17.5586 27.6841 18.1212 27.1214C18.6839 26.5588 18.9999 25.7958 18.9999 25.0001Z" fill="#373D43"/>
</svg>
