<svg width="32" height="32" viewBox="0 0 32 32" fill="none" xmlns="http://www.w3.org/2000/svg">
<path fill-rule="evenodd" clip-rule="evenodd" d="M3.58579 6.58579C3.96086 6.21071 4.46957 6 5 6H11.6666C12.0964 6.00177 12.5143 6.14108 12.8592 6.39754L12.8616 6.39931L16.3342 8.99754C16.3343 8.9976 16.3341 8.99748 16.3342 8.99754C16.3362 8.99894 16.3388 8.99991 16.3412 9H25C25.5304 9 26.0391 9.21071 26.4142 9.58579C26.7893 9.96086 27 10.4696 27 11V14C27 14.5523 26.5523 15 26 15C25.4477 15 25 14.5523 25 14V11H16.3334C15.9036 10.9982 15.4857 10.8589 15.1408 10.6025L15.1384 10.6007L11.6658 8.00246C11.6657 8.0024 11.6659 8.00252 11.6658 8.00246C11.6638 8.00106 11.6612 8.00009 11.6588 8L5 8L5 26C5 26.5523 4.55228 27 4 27C3.44772 27 3 26.5523 3 26V8C3 7.46957 3.21071 6.96086 3.58579 6.58579Z" fill="#616C76"/>
<path fill-rule="evenodd" clip-rule="evenodd" d="M18.3 13H28.6124C28.6124 13 28.6124 13 28.6124 13C28.9286 13 29.2405 13.075 29.5221 13.2188C29.8037 13.3626 30.0473 13.5711 30.2327 13.8273C30.4182 14.0835 30.5402 14.38 30.5888 14.6925C30.6374 15.005 30.6113 15.3246 30.5124 15.625L30.5112 15.6287L26.9487 26.3162C26.8126 26.7246 26.4304 27 26 27H4C3.66818 27 3.35797 26.8354 3.17194 26.5606C2.98591 26.2859 2.94829 25.9367 3.07153 25.6286L6.81981 16.2579C6.82014 16.2571 6.82047 16.2563 6.8208 16.2554C6.96815 15.8835 7.22433 15.5647 7.55585 15.3407C7.88707 15.1169 8.27804 14.9982 8.6777 15C8.67897 15 8.68025 15 8.68152 15L8.675 16V15H8.6777H14.6912C14.6906 15 14.69 15.0001 14.6893 15.0001L14.7 16V15.0166L15.25 15.8375L14.7155 14.9923C14.7142 14.9932 14.7128 14.9939 14.7114 14.9947L17.1934 13.3317C17.2007 13.3268 17.2081 13.322 17.2155 13.3173C17.5371 13.114 17.9089 13.0041 18.2893 13.0001L18.3 13ZM14.7 15.0023V15H14.6912C14.6983 14.9997 14.7051 14.9978 14.7114 14.9947L14.7 15.0023ZM18.3088 15C18.3017 15.0003 18.2949 15.0022 18.2886 15.0053L15.8066 16.6683C15.7993 16.6732 15.7919 16.678 15.7845 16.6827C15.4629 16.886 15.0911 16.9959 14.7107 16.9999L14.7 17.0001L8.67704 17L5.47704 25H25.2792L28.6126 15H18.3088Z" fill="#616C76"/>
</svg>
