<svg width="20" height="20" viewBox="0 0 20 20" fill="none" xmlns="http://www.w3.org/2000/svg">
<path fill-rule="evenodd" clip-rule="evenodd" d="M7.32371 1.66307C7.49537 1.60765 7.68259 1.62911 7.83727 1.72191L9.66421 2.81808C9.88815 2.80807 10.1124 2.80808 10.3364 2.8181L12.1557 1.72935C12.3091 1.63755 12.4945 1.61584 12.6649 1.66969C13.8589 2.0469 14.9566 2.67907 15.882 3.52246C16.0147 3.64336 16.089 3.81546 16.0859 3.99493L16.0502 6.11855C16.1736 6.308 16.2868 6.50388 16.3893 6.70537L18.2413 7.73503C18.3972 7.82174 18.5087 7.97095 18.5476 8.14509C18.82 9.36547 18.8229 10.6306 18.556 11.8522C18.5176 12.0278 18.4055 12.1784 18.2482 12.2655L16.3891 13.2952C16.2866 13.4965 16.1734 13.6922 16.0502 13.8815L16.0859 16.0051C16.089 16.1846 16.0147 16.3567 15.882 16.4776C14.9585 17.3192 13.8655 17.9532 12.6765 18.337C12.5048 18.3924 12.3176 18.371 12.1629 18.2782L10.336 17.182C10.112 17.192 9.88775 17.192 9.66381 17.182L7.84446 18.2707C7.69106 18.3625 7.5057 18.3842 7.33524 18.3304C6.1413 17.9532 5.04361 17.321 4.11816 16.4776C3.98549 16.3567 3.9112 16.1846 3.91424 16.0051L3.95003 13.8863C3.82738 13.6949 3.7143 13.4975 3.61119 13.2949L1.75888 12.265C1.60293 12.1783 1.49148 12.0291 1.4526 11.855C1.18013 10.6346 1.17725 9.36947 1.44418 8.14787C1.48255 7.97224 1.5947 7.82164 1.75196 7.73454L3.61111 6.70485C3.7136 6.50355 3.82672 6.30784 3.94999 6.11855L3.91423 3.99493C3.91121 3.81545 3.9855 3.64334 4.11818 3.52244C5.04168 2.6809 6.1347 2.04689 7.32371 1.66307ZM5.16893 4.26306L5.20312 6.2942C5.20534 6.42579 5.16596 6.55472 5.09059 6.66261C4.92296 6.90262 4.77619 7.15655 4.65191 7.42161C4.59603 7.54078 4.50397 7.63926 4.38883 7.70303L2.61113 8.6876C2.45564 9.55573 2.45779 10.4448 2.61751 11.3122L4.38973 12.2975C4.50399 12.3611 4.59545 12.4588 4.65125 12.5771C4.77826 12.8462 4.9264 13.1049 5.09428 13.3506C5.16728 13.4575 5.20531 13.5843 5.20312 13.7137L5.16894 15.7369C5.84449 16.3076 6.61702 16.7524 7.44971 17.0502L9.18696 16.0106C9.29698 15.9448 9.42459 15.9144 9.55249 15.9235C9.8505 15.9448 10.1497 15.9448 10.4477 15.9235C10.5758 15.9143 10.7037 15.9449 10.8138 16.011L12.5567 17.0567C13.3867 16.7542 14.1567 16.3074 14.8312 15.737L14.797 13.7059C14.7948 13.5743 14.8342 13.4453 14.9096 13.3375C15.0772 13.0974 15.224 12.8435 15.3483 12.5785C15.4041 12.4593 15.4962 12.3608 15.6113 12.297L17.389 11.3125C17.5445 10.4443 17.5424 9.55524 17.3827 8.68786L15.6104 7.70253C15.4957 7.63875 15.404 7.54046 15.3483 7.42161C15.224 7.15655 15.0772 6.90262 14.9096 6.66261C14.8342 6.55472 14.7948 6.42579 14.797 6.2942L14.8312 4.26314C14.1557 3.69245 13.3832 3.24763 12.5505 2.94985L10.8132 3.98946C10.7032 4.0553 10.5756 4.08571 10.4477 4.07656C10.1497 4.05525 9.8505 4.05525 9.55249 4.07656C9.42435 4.08573 9.2965 4.05519 9.18634 3.98909L7.44349 2.94338C6.61351 3.24588 5.84347 3.69264 5.16893 4.26306ZM10.0001 6.87503C8.27419 6.87503 6.87508 8.27414 6.87508 10C6.87508 11.7259 8.27419 13.125 10.0001 13.125C11.726 13.125 13.1251 11.7259 13.1251 10C13.1251 8.27414 11.726 6.87503 10.0001 6.87503ZM5.62508 10C5.62508 7.58379 7.58384 5.62503 10.0001 5.62503C12.4163 5.62503 14.3751 7.58379 14.3751 10C14.3751 12.4163 12.4163 14.375 10.0001 14.375C7.58384 14.375 5.62508 12.4163 5.62508 10Z" fill="#8FA0AF"/>
</svg>
