<svg xmlns="http://www.w3.org/2000/svg" width="32" height="32" viewBox="0 0 32 32" fill="none">
<path fill-rule="evenodd" clip-rule="evenodd" d="M16 4C13.7909 4 12 5.79086 12 8V16C12 18.2091 13.7909 20 16 20C18.2091 20 20 18.2091 20 16V8C20 5.79086 18.2091 4 16 4ZM10 8C10 4.68629 12.6863 2 16 2C19.3137 2 22 4.68629 22 8V16C22 19.3137 19.3137 22 16 22C12.6863 22 10 19.3137 10 16V8Z" fill="#3b3b3b"/>
<path fill-rule="evenodd" clip-rule="evenodd" d="M16 24C16.5523 24 17 24.4477 17 25V29C17 29.5523 16.5523 30 16 30C15.4477 30 15 29.5523 15 29V25C15 24.4477 15.4477 24 16 24Z" fill="#3b3b3b"/>
<path fill-rule="evenodd" clip-rule="evenodd" d="M6.93234 16.0069C7.48079 15.942 7.97804 16.334 8.04297 16.8824C8.27362 18.8307 9.21109 20.6267 10.6777 21.9299C12.1442 23.2331 14.038 23.9529 15.9999 23.9529C17.9618 23.9529 19.8556 23.2331 21.3221 21.9299C22.7887 20.6267 23.7262 18.8307 23.9568 16.8824C24.0218 16.334 24.519 15.942 25.0675 16.0069C25.6159 16.0718 26.0079 16.5691 25.943 17.1175C25.6547 19.5522 24.4833 21.7965 22.6506 23.4249C20.818 25.0534 18.4515 25.9529 15.9999 25.9529C13.5483 25.9529 11.1818 25.0534 9.34918 23.4249C7.51653 21.7965 6.34506 19.5522 6.05684 17.1175C5.99191 16.5691 6.38388 16.0718 6.93234 16.0069Z" fill="#3b3b3b"/>
</svg>